<svg xmlns="http://www.w3.org/2000/svg" viewBox="0 0 900 392" width="900" height="392" font-family="system-ui,-apple-system,sans-serif">
<title>Таиланд — когда и куда ехать по месяцам</title>
<desc>Сезонная матрица Пхукет, Самуи, Паттайя и Бангкок по 12 месяцам. Зелёный — сухо и лучший сезон, жёлтый — жара или переход, красный — дожди.</desc>
<rect width="900" height="392" fill="#131009"/>
<text x="450" y="34" text-anchor="middle" fill="#c9973a" font-size="14" font-weight="600" letter-spacing="2">ТАИЛАНД — КОГДА И КУДА ЕХАТЬ ПО МЕСЯЦАМ</text>
<rect x="170" y="52" width="14" height="14" fill="#5cc97a"/><text x="190" y="63" fill="#a8a090" font-size="11">сухо · лучший сезон</text>
<rect x="340" y="52" width="14" height="14" fill="#e8c062"/><text x="360" y="63" fill="#a8a090" font-size="11">жара · переход</text>
<rect x="490" y="52" width="14" height="14" fill="#d44545"/><text x="510" y="63" fill="#a8a090" font-size="11">сезон дождей</text>
<text x="205" y="104" text-anchor="middle" fill="#a8a090" font-size="10" font-weight="600">ЯНВ</text>
<text x="263" y="104" text-anchor="middle" fill="#a8a090" font-size="10" font-weight="600">ФЕВ</text>
<text x="321" y="104" text-anchor="middle" fill="#a8a090" font-size="10" font-weight="600">МАР</text>
<text x="379" y="104" text-anchor="middle" fill="#a8a090" font-size="10" font-weight="600">АПР</text>
<text x="437" y="104" text-anchor="middle" fill="#a8a090" font-size="10" font-weight="600">МАЙ</text>
<text x="495" y="104" text-anchor="middle" fill="#a8a090" font-size="10" font-weight="600">ИЮН</text>
<text x="553" y="104" text-anchor="middle" fill="#a8a090" font-size="10" font-weight="600">ИЮЛ</text>
<text x="611" y="104" text-anchor="middle" fill="#a8a090" font-size="10" font-weight="600">АВГ</text>
<text x="669" y="104" text-anchor="middle" fill="#a8a090" font-size="10" font-weight="600">СЕН</text>
<text x="727" y="104" text-anchor="middle" fill="#a8a090" font-size="10" font-weight="600">ОКТ</text>
<text x="785" y="104" text-anchor="middle" fill="#a8a090" font-size="10" font-weight="600">НОЯ</text>
<text x="843" y="104" text-anchor="middle" fill="#a8a090" font-size="10" font-weight="600">ДЕК</text>
<line x1="40" y1="114" x2="860" y2="114" stroke="#3a3429" stroke-width="1"/>
<text x="48" y="150" fill="#e8e0d0" font-size="12.5" font-weight="600">Пхукет·Краби</text>
<rect x="178" y="132" width="54" height="26" rx="3" fill="#5cc97a" opacity="0.92"/>
<rect x="236" y="132" width="54" height="26" rx="3" fill="#5cc97a" opacity="0.92"/>
<rect x="294" y="132" width="54" height="26" rx="3" fill="#5cc97a" opacity="0.92"/>
<rect x="352" y="132" width="54" height="26" rx="3" fill="#5cc97a" opacity="0.92"/>
<rect x="410" y="132" width="54" height="26" rx="3" fill="#e8c062" opacity="0.92"/>
<rect x="468" y="132" width="54" height="26" rx="3" fill="#e8c062" opacity="0.92"/>
<rect x="526" y="132" width="54" height="26" rx="3" fill="#d44545" opacity="0.92"/>
<rect x="584" y="132" width="54" height="26" rx="3" fill="#d44545" opacity="0.92"/>
<rect x="642" y="132" width="54" height="26" rx="3" fill="#d44545" opacity="0.92"/>
<rect x="700" y="132" width="54" height="26" rx="3" fill="#e8c062" opacity="0.92"/>
<rect x="758" y="132" width="54" height="26" rx="3" fill="#5cc97a" opacity="0.92"/>
<rect x="816" y="132" width="54" height="26" rx="3" fill="#5cc97a" opacity="0.92"/>
<text x="48" y="190" fill="#e8e0d0" font-size="12.5" font-weight="600">Самуи·Панган</text>
<rect x="178" y="172" width="54" height="26" rx="3" fill="#5cc97a" opacity="0.92"/>
<rect x="236" y="172" width="54" height="26" rx="3" fill="#5cc97a" opacity="0.92"/>
<rect x="294" y="172" width="54" height="26" rx="3" fill="#5cc97a" opacity="0.92"/>
<rect x="352" y="172" width="54" height="26" rx="3" fill="#5cc97a" opacity="0.92"/>
<rect x="410" y="172" width="54" height="26" rx="3" fill="#5cc97a" opacity="0.92"/>
<rect x="468" y="172" width="54" height="26" rx="3" fill="#5cc97a" opacity="0.92"/>
<rect x="526" y="172" width="54" height="26" rx="3" fill="#5cc97a" opacity="0.92"/>
<rect x="584" y="172" width="54" height="26" rx="3" fill="#5cc97a" opacity="0.92"/>
<rect x="642" y="172" width="54" height="26" rx="3" fill="#e8c062" opacity="0.92"/>
<rect x="700" y="172" width="54" height="26" rx="3" fill="#d44545" opacity="0.92"/>
<rect x="758" y="172" width="54" height="26" rx="3" fill="#d44545" opacity="0.92"/>
<rect x="816" y="172" width="54" height="26" rx="3" fill="#d44545" opacity="0.92"/>
<text x="48" y="230" fill="#e8e0d0" font-size="12.5" font-weight="600">Паттайя</text>
<rect x="178" y="212" width="54" height="26" rx="3" fill="#5cc97a" opacity="0.92"/>
<rect x="236" y="212" width="54" height="26" rx="3" fill="#5cc97a" opacity="0.92"/>
<rect x="294" y="212" width="54" height="26" rx="3" fill="#e8c062" opacity="0.92"/>
<rect x="352" y="212" width="54" height="26" rx="3" fill="#e8c062" opacity="0.92"/>
<rect x="410" y="212" width="54" height="26" rx="3" fill="#e8c062" opacity="0.92"/>
<rect x="468" y="212" width="54" height="26" rx="3" fill="#e8c062" opacity="0.92"/>
<rect x="526" y="212" width="54" height="26" rx="3" fill="#e8c062" opacity="0.92"/>
<rect x="584" y="212" width="54" height="26" rx="3" fill="#e8c062" opacity="0.92"/>
<rect x="642" y="212" width="54" height="26" rx="3" fill="#d44545" opacity="0.92"/>
<rect x="700" y="212" width="54" height="26" rx="3" fill="#d44545" opacity="0.92"/>
<rect x="758" y="212" width="54" height="26" rx="3" fill="#5cc97a" opacity="0.92"/>
<rect x="816" y="212" width="54" height="26" rx="3" fill="#5cc97a" opacity="0.92"/>
<text x="48" y="270" fill="#e8e0d0" font-size="12.5" font-weight="600">Бангкок</text>
<rect x="178" y="252" width="54" height="26" rx="3" fill="#5cc97a" opacity="0.92"/>
<rect x="236" y="252" width="54" height="26" rx="3" fill="#5cc97a" opacity="0.92"/>
<rect x="294" y="252" width="54" height="26" rx="3" fill="#5cc97a" opacity="0.92"/>
<rect x="352" y="252" width="54" height="26" rx="3" fill="#e8c062" opacity="0.92"/>
<rect x="410" y="252" width="54" height="26" rx="3" fill="#e8c062" opacity="0.92"/>
<rect x="468" y="252" width="54" height="26" rx="3" fill="#e8c062" opacity="0.92"/>
<rect x="526" y="252" width="54" height="26" rx="3" fill="#e8c062" opacity="0.92"/>
<rect x="584" y="252" width="54" height="26" rx="3" fill="#e8c062" opacity="0.92"/>
<rect x="642" y="252" width="54" height="26" rx="3" fill="#d44545" opacity="0.92"/>
<rect x="700" y="252" width="54" height="26" rx="3" fill="#d44545" opacity="0.92"/>
<rect x="758" y="252" width="54" height="26" rx="3" fill="#5cc97a" opacity="0.92"/>
<rect x="816" y="252" width="54" height="26" rx="3" fill="#5cc97a" opacity="0.92"/>
<line x1="40" y1="310" x2="860" y2="310" stroke="#3a3429" stroke-width="1"/>
<text x="48" y="334" fill="#e8e0d0" font-size="12" font-weight="600">Главное правило Таиланда:</text>
<text x="48" y="354" fill="#a8a090" font-size="11.5">Пхукет и Самуи — сезоны наоборот. Высокий сезон везде ноябрь–апрель. Летом залив (Самуи) суше Андамана (Пхукет).</text>
<text x="48" y="372" fill="#6b6456" font-size="10">Ориентир по сезонам. Пхукет и Самуи сверены по thailandbeaches.org и silentdivers, 2026.</text>
</svg>