<svg xmlns="http://www.w3.org/2000/svg" width="1200" height="630" viewBox="0 0 1200 630">
  <defs>
    <pattern id="g" width="50" height="50" patternUnits="userSpaceOnUse">
      <path d="M50 0H0V50" fill="none" stroke="#21262d" stroke-width="0.8"/>
    </pattern>
  </defs>

  <!-- Background -->
  <rect width="1200" height="630" fill="#0d1117"/>
  <rect width="1200" height="630" fill="url(#g)" opacity="0.6"/>
  <!-- Top accent stripe -->
  <rect width="1200" height="5" fill="#d4cf5a"/>

  <!-- LEFT: Text content -->
  <text x="72" y="185" font-family="Georgia,'Times New Roman',serif" font-size="74" font-style="italic" fill="#e6edf3">Сезоны для</text>
  <text x="72" y="275" font-family="Georgia,'Times New Roman',serif" font-size="74" font-style="italic" fill="#d4cf5a">путешествий</text>
  <text x="72" y="330" font-family="'Courier New',monospace" font-size="18" fill="#8b949e" letter-spacing="1">// 24 региона · виза · бюджет · из Москвы 2026</text>

  <!-- Legend -->
  <circle cx="72" cy="405" r="9" fill="#2ea043"/>
  <text x="90" y="412" font-family="'Courier New',monospace" font-size="16" fill="#8b949e">Пик</text>
  <circle cx="152" cy="405" r="9" fill="#388bfd"/>
  <text x="170" y="412" font-family="'Courier New',monospace" font-size="16" fill="#8b949e">Хорошо</text>
  <circle cx="285" cy="405" r="9" fill="#d29922"/>
  <text x="303" y="412" font-family="'Courier New',monospace" font-size="16" fill="#8b949e">Нормально</text>
  <circle cx="455" cy="405" r="9" fill="#f85149"/>
  <text x="473" y="412" font-family="'Courier New',monospace" font-size="16" fill="#8b949e">Не ехать</text>

  <!-- Brand -->
  <text x="72" y="548" font-family="'Courier New',monospace" font-size="30" fill="#d4cf5a" font-weight="bold">traveltribe.ru</text>
  <text x="72" y="587" font-family="'Courier New',monospace" font-size="16" fill="#30363d">Telegram: @traveltriberu</text>

  <!-- Vertical divider -->
  <line x1="592" y1="30" x2="592" y2="600" stroke="#21262d" stroke-width="1"/>

  <!-- RIGHT: Season grid -->
  <!-- Month labels -->
  <text x="636" y="88" font-family="'Courier New',monospace" font-size="12" fill="#30363d" text-anchor="middle">ЯНВ</text>
  <text x="680" y="88" font-family="'Courier New',monospace" font-size="12" fill="#30363d" text-anchor="middle">ФЕВ</text>
  <text x="724" y="88" font-family="'Courier New',monospace" font-size="12" fill="#30363d" text-anchor="middle">МАР</text>
  <text x="768" y="88" font-family="'Courier New',monospace" font-size="12" fill="#30363d" text-anchor="middle">АПР</text>
  <text x="812" y="88" font-family="'Courier New',monospace" font-size="12" fill="#30363d" text-anchor="middle">МАЙ</text>
  <text x="856" y="88" font-family="'Courier New',monospace" font-size="12" fill="#30363d" text-anchor="middle">ИЮН</text>
  <text x="900" y="88" font-family="'Courier New',monospace" font-size="12" fill="#30363d" text-anchor="middle">ИЮЛ</text>
  <text x="944" y="88" font-family="'Courier New',monospace" font-size="12" fill="#30363d" text-anchor="middle">АВГ</text>
  <text x="988" y="88" font-family="'Courier New',monospace" font-size="12" fill="#30363d" text-anchor="middle">СЕН</text>
  <text x="1032" y="88" font-family="'Courier New',monospace" font-size="12" fill="#30363d" text-anchor="middle">ОКТ</text>
  <text x="1076" y="88" font-family="'Courier New',monospace" font-size="12" fill="#30363d" text-anchor="middle">НОЯ</text>
  <text x="1120" y="88" font-family="'Courier New',monospace" font-size="12" fill="#30363d" text-anchor="middle">ДЕК</text>

  <!-- Region labels (right-aligned at x=616) -->
  <text x="616" y="120" font-family="'Courier New',monospace" font-size="13" fill="#8b949e" text-anchor="end">ОАЭ</text>
  <text x="616" y="175" font-family="'Courier New',monospace" font-size="13" fill="#8b949e" text-anchor="end">Бали</text>
  <text x="616" y="230" font-family="'Courier New',monospace" font-size="13" fill="#8b949e" text-anchor="end">Япония</text>
  <text x="616" y="285" font-family="'Courier New',monospace" font-size="13" fill="#8b949e" text-anchor="end">Грузия</text>
  <text x="616" y="340" font-family="'Courier New',monospace" font-size="13" fill="#8b949e" text-anchor="end">Мексика</text>
  <text x="616" y="395" font-family="'Courier New',monospace" font-size="13" fill="#8b949e" text-anchor="end">ЮАР</text>
  <text x="616" y="450" font-family="'Courier New',monospace" font-size="13" fill="#8b949e" text-anchor="end">Кения</text>
  <text x="616" y="505" font-family="'Courier New',monospace" font-size="13" fill="#8b949e" text-anchor="end">Швейцария</text>

  <!-- ROW 1: ОАЭ → P P G G O B B B B G P P -->
  <circle cx="636" cy="113" r="13" fill="#2ea043"/>
  <circle cx="680" cy="113" r="13" fill="#2ea043"/>
  <circle cx="724" cy="113" r="13" fill="#388bfd"/>
  <circle cx="768" cy="113" r="13" fill="#388bfd"/>
  <circle cx="812" cy="113" r="13" fill="#d29922"/>
  <circle cx="856" cy="113" r="13" fill="#f85149"/>
  <circle cx="900" cy="113" r="13" fill="#f85149"/>
  <circle cx="944" cy="113" r="13" fill="#f85149"/>
  <circle cx="988" cy="113" r="13" fill="#f85149"/>
  <circle cx="1032" cy="113" r="13" fill="#388bfd"/>
  <circle cx="1076" cy="113" r="13" fill="#2ea043"/>
  <circle cx="1120" cy="113" r="13" fill="#2ea043"/>

  <!-- ROW 2: Бали → O O O G P P P P P G O O -->
  <circle cx="636" cy="168" r="13" fill="#d29922"/>
  <circle cx="680" cy="168" r="13" fill="#d29922"/>
  <circle cx="724" cy="168" r="13" fill="#d29922"/>
  <circle cx="768" cy="168" r="13" fill="#388bfd"/>
  <circle cx="812" cy="168" r="13" fill="#2ea043"/>
  <circle cx="856" cy="168" r="13" fill="#2ea043"/>
  <circle cx="900" cy="168" r="13" fill="#2ea043"/>
  <circle cx="944" cy="168" r="13" fill="#2ea043"/>
  <circle cx="988" cy="168" r="13" fill="#2ea043"/>
  <circle cx="1032" cy="168" r="13" fill="#388bfd"/>
  <circle cx="1076" cy="168" r="13" fill="#d29922"/>
  <circle cx="1120" cy="168" r="13" fill="#d29922"/>

  <!-- ROW 3: Япония → O O P P G O O B G P P O -->
  <circle cx="636" cy="223" r="13" fill="#d29922"/>
  <circle cx="680" cy="223" r="13" fill="#d29922"/>
  <circle cx="724" cy="223" r="13" fill="#2ea043"/>
  <circle cx="768" cy="223" r="13" fill="#2ea043"/>
  <circle cx="812" cy="223" r="13" fill="#388bfd"/>
  <circle cx="856" cy="223" r="13" fill="#d29922"/>
  <circle cx="900" cy="223" r="13" fill="#d29922"/>
  <circle cx="944" cy="223" r="13" fill="#f85149"/>
  <circle cx="988" cy="223" r="13" fill="#388bfd"/>
  <circle cx="1032" cy="223" r="13" fill="#2ea043"/>
  <circle cx="1076" cy="223" r="13" fill="#2ea043"/>
  <circle cx="1120" cy="223" r="13" fill="#d29922"/>

  <!-- ROW 4: Грузия → O O G G P P G G P P O O -->
  <circle cx="636" cy="278" r="13" fill="#d29922"/>
  <circle cx="680" cy="278" r="13" fill="#d29922"/>
  <circle cx="724" cy="278" r="13" fill="#388bfd"/>
  <circle cx="768" cy="278" r="13" fill="#388bfd"/>
  <circle cx="812" cy="278" r="13" fill="#2ea043"/>
  <circle cx="856" cy="278" r="13" fill="#2ea043"/>
  <circle cx="900" cy="278" r="13" fill="#388bfd"/>
  <circle cx="944" cy="278" r="13" fill="#388bfd"/>
  <circle cx="988" cy="278" r="13" fill="#2ea043"/>
  <circle cx="1032" cy="278" r="13" fill="#2ea043"/>
  <circle cx="1076" cy="278" r="13" fill="#d29922"/>
  <circle cx="1120" cy="278" r="13" fill="#d29922"/>

  <!-- ROW 5: Мексика → P P P G G O O O O G G P -->
  <circle cx="636" cy="333" r="13" fill="#2ea043"/>
  <circle cx="680" cy="333" r="13" fill="#2ea043"/>
  <circle cx="724" cy="333" r="13" fill="#2ea043"/>
  <circle cx="768" cy="333" r="13" fill="#388bfd"/>
  <circle cx="812" cy="333" r="13" fill="#388bfd"/>
  <circle cx="856" cy="333" r="13" fill="#d29922"/>
  <circle cx="900" cy="333" r="13" fill="#d29922"/>
  <circle cx="944" cy="333" r="13" fill="#d29922"/>
  <circle cx="988" cy="333" r="13" fill="#d29922"/>
  <circle cx="1032" cy="333" r="13" fill="#388bfd"/>
  <circle cx="1076" cy="333" r="13" fill="#388bfd"/>
  <circle cx="1120" cy="333" r="13" fill="#2ea043"/>

  <!-- ROW 6: ЮАР → P P G G O O O O G G G P -->
  <circle cx="636" cy="388" r="13" fill="#2ea043"/>
  <circle cx="680" cy="388" r="13" fill="#2ea043"/>
  <circle cx="724" cy="388" r="13" fill="#388bfd"/>
  <circle cx="768" cy="388" r="13" fill="#388bfd"/>
  <circle cx="812" cy="388" r="13" fill="#d29922"/>
  <circle cx="856" cy="388" r="13" fill="#d29922"/>
  <circle cx="900" cy="388" r="13" fill="#d29922"/>
  <circle cx="944" cy="388" r="13" fill="#d29922"/>
  <circle cx="988" cy="388" r="13" fill="#388bfd"/>
  <circle cx="1032" cy="388" r="13" fill="#388bfd"/>
  <circle cx="1076" cy="388" r="13" fill="#388bfd"/>
  <circle cx="1120" cy="388" r="13" fill="#2ea043"/>

  <!-- ROW 7: Кения → G G O B B P P P P G O G -->
  <circle cx="636" cy="443" r="13" fill="#388bfd"/>
  <circle cx="680" cy="443" r="13" fill="#388bfd"/>
  <circle cx="724" cy="443" r="13" fill="#d29922"/>
  <circle cx="768" cy="443" r="13" fill="#f85149"/>
  <circle cx="812" cy="443" r="13" fill="#f85149"/>
  <circle cx="856" cy="443" r="13" fill="#2ea043"/>
  <circle cx="900" cy="443" r="13" fill="#2ea043"/>
  <circle cx="944" cy="443" r="13" fill="#2ea043"/>
  <circle cx="988" cy="443" r="13" fill="#2ea043"/>
  <circle cx="1032" cy="443" r="13" fill="#388bfd"/>
  <circle cx="1076" cy="443" r="13" fill="#d29922"/>
  <circle cx="1120" cy="443" r="13" fill="#388bfd"/>

  <!-- ROW 8: Швейцария → G G O O G P P P P G O G -->
  <circle cx="636" cy="498" r="13" fill="#388bfd"/>
  <circle cx="680" cy="498" r="13" fill="#388bfd"/>
  <circle cx="724" cy="498" r="13" fill="#d29922"/>
  <circle cx="768" cy="498" r="13" fill="#d29922"/>
  <circle cx="812" cy="498" r="13" fill="#388bfd"/>
  <circle cx="856" cy="498" r="13" fill="#2ea043"/>
  <circle cx="900" cy="498" r="13" fill="#2ea043"/>
  <circle cx="944" cy="498" r="13" fill="#2ea043"/>
  <circle cx="988" cy="498" r="13" fill="#2ea043"/>
  <circle cx="1032" cy="498" r="13" fill="#388bfd"/>
  <circle cx="1076" cy="498" r="13" fill="#d29922"/>
  <circle cx="1120" cy="498" r="13" fill="#388bfd"/>

  <!-- Bottom note on right -->
  <text x="880" y="582" font-family="'Courier New',monospace" font-size="14" fill="#21262d" text-anchor="middle">+ ещё 16 регионов на сайте</text>
</svg>
