<svg xmlns="http://www.w3.org/2000/svg" viewBox="0 0 640 710" width="640" height="710" font-family="system-ui,-apple-system,sans-serif">
<title>Температура моря по месяцам в одиннадцати направлениях</title>
<desc>Средняя температура воды в январе, мае, августе и октябре. Синий — не купаются, голубой — прохладно, зелёный — комфортно, жёлтый — тепло, красный — вода как горячая ванна.</desc>
<rect width="640" height="710" fill="#131009"/>
<text x="320" y="44" text-anchor="middle" fill="#c9973a" font-size="23" font-weight="700">ТЕМПЕРАТУРА МОРЯ, °C</text>
<rect x="30" y="63" width="15" height="15" rx="2" fill="#4a7fb5"/>
<text x="52" y="76" fill="#a8a090" font-size="16">до +18 · не купаются</text>
<rect x="340" y="63" width="15" height="15" rx="2" fill="#5cc97a"/>
<text x="362" y="76" fill="#a8a090" font-size="16">+23…+26 · комфортно</text>
<rect x="30" y="89" width="15" height="15" rx="2" fill="#e8c062"/>
<text x="52" y="102" fill="#a8a090" font-size="16">+27…+30 · тепло</text>
<rect x="340" y="89" width="15" height="15" rx="2" fill="#d44545"/>
<text x="362" y="102" fill="#a8a090" font-size="16">выше +30 · горячо</text>
<text x="235" y="154" text-anchor="middle" fill="#a8a090" font-size="17" font-weight="700">ЯНВ</text>
<text x="345" y="154" text-anchor="middle" fill="#a8a090" font-size="17" font-weight="700">МАЙ</text>
<text x="455" y="154" text-anchor="middle" fill="#a8a090" font-size="17" font-weight="700">АВГ</text>
<text x="565" y="154" text-anchor="middle" fill="#a8a090" font-size="17" font-weight="700">ОКТ</text>
<line x1="24" y1="164" x2="616" y2="164" stroke="#3a3429"/>
<text x="30" y="199" fill="#e8e0d0" font-size="19" font-weight="600">Абхазия</text>
<rect x="184" y="175" width="101" height="33" rx="4" fill="#4a7fb5" opacity="0.94"/>
<text x="235" y="199" text-anchor="middle" fill="#131009" font-size="19" font-weight="700">+10</text>
<rect x="294" y="175" width="101" height="33" rx="4" fill="#7fb5c9" opacity="0.94"/>
<text x="345" y="199" text-anchor="middle" fill="#131009" font-size="19" font-weight="700">+18</text>
<rect x="404" y="175" width="101" height="33" rx="4" fill="#5cc97a" opacity="0.94"/>
<text x="455" y="199" text-anchor="middle" fill="#131009" font-size="19" font-weight="700">+26</text>
<rect x="514" y="175" width="101" height="33" rx="4" fill="#7fb5c9" opacity="0.94"/>
<text x="565" y="199" text-anchor="middle" fill="#131009" font-size="19" font-weight="700">+21</text>
<text x="30" y="243" fill="#e8e0d0" font-size="19" font-weight="600">Грузия</text>
<rect x="184" y="219" width="101" height="33" rx="4" fill="#4a7fb5" opacity="0.94"/>
<text x="235" y="243" text-anchor="middle" fill="#131009" font-size="19" font-weight="700">+9</text>
<rect x="294" y="219" width="101" height="33" rx="4" fill="#7fb5c9" opacity="0.94"/>
<text x="345" y="243" text-anchor="middle" fill="#131009" font-size="19" font-weight="700">+18</text>
<rect x="404" y="219" width="101" height="33" rx="4" fill="#5cc97a" opacity="0.94"/>
<text x="455" y="243" text-anchor="middle" fill="#131009" font-size="19" font-weight="700">+26</text>
<rect x="514" y="219" width="101" height="33" rx="4" fill="#7fb5c9" opacity="0.94"/>
<text x="565" y="243" text-anchor="middle" fill="#131009" font-size="19" font-weight="700">+19</text>
<text x="30" y="287" fill="#e8e0d0" font-size="19" font-weight="600">Турция</text>
<rect x="184" y="263" width="101" height="33" rx="4" fill="#4a7fb5" opacity="0.94"/>
<text x="235" y="287" text-anchor="middle" fill="#131009" font-size="19" font-weight="700">+15</text>
<rect x="294" y="263" width="101" height="33" rx="4" fill="#7fb5c9" opacity="0.94"/>
<text x="345" y="287" text-anchor="middle" fill="#131009" font-size="19" font-weight="700">+20</text>
<rect x="404" y="263" width="101" height="33" rx="4" fill="#e8c062" opacity="0.94"/>
<text x="455" y="287" text-anchor="middle" fill="#131009" font-size="19" font-weight="700">+27</text>
<rect x="514" y="263" width="101" height="33" rx="4" fill="#5cc97a" opacity="0.94"/>
<text x="565" y="287" text-anchor="middle" fill="#131009" font-size="19" font-weight="700">+24</text>
<text x="30" y="331" fill="#e8e0d0" font-size="19" font-weight="600">Греция</text>
<rect x="184" y="307" width="101" height="33" rx="4" fill="#4a7fb5" opacity="0.94"/>
<text x="235" y="331" text-anchor="middle" fill="#131009" font-size="19" font-weight="700">+16</text>
<rect x="294" y="307" width="101" height="33" rx="4" fill="#7fb5c9" opacity="0.94"/>
<text x="345" y="331" text-anchor="middle" fill="#131009" font-size="19" font-weight="700">+20</text>
<rect x="404" y="307" width="101" height="33" rx="4" fill="#5cc97a" opacity="0.94"/>
<text x="455" y="331" text-anchor="middle" fill="#131009" font-size="19" font-weight="700">+25</text>
<rect x="514" y="307" width="101" height="33" rx="4" fill="#5cc97a" opacity="0.94"/>
<text x="565" y="331" text-anchor="middle" fill="#131009" font-size="19" font-weight="700">+23</text>
<text x="30" y="375" fill="#e8e0d0" font-size="19" font-weight="600">Кипр</text>
<rect x="184" y="351" width="101" height="33" rx="4" fill="#7fb5c9" opacity="0.94"/>
<text x="235" y="375" text-anchor="middle" fill="#131009" font-size="19" font-weight="700">+18</text>
<rect x="294" y="351" width="101" height="33" rx="4" fill="#7fb5c9" opacity="0.94"/>
<text x="345" y="375" text-anchor="middle" fill="#131009" font-size="19" font-weight="700">+21</text>
<rect x="404" y="351" width="101" height="33" rx="4" fill="#e8c062" opacity="0.94"/>
<text x="455" y="375" text-anchor="middle" fill="#131009" font-size="19" font-weight="700">+27</text>
<rect x="514" y="351" width="101" height="33" rx="4" fill="#5cc97a" opacity="0.94"/>
<text x="565" y="375" text-anchor="middle" fill="#131009" font-size="19" font-weight="700">+26</text>
<text x="30" y="419" fill="#e8e0d0" font-size="19" font-weight="600">Египет</text>
<rect x="184" y="395" width="101" height="33" rx="4" fill="#7fb5c9" opacity="0.94"/>
<text x="235" y="419" text-anchor="middle" fill="#131009" font-size="19" font-weight="700">+22</text>
<rect x="294" y="395" width="101" height="33" rx="4" fill="#5cc97a" opacity="0.94"/>
<text x="345" y="419" text-anchor="middle" fill="#131009" font-size="19" font-weight="700">+26</text>
<rect x="404" y="395" width="101" height="33" rx="4" fill="#e8c062" opacity="0.94"/>
<text x="455" y="419" text-anchor="middle" fill="#131009" font-size="19" font-weight="700">+29</text>
<rect x="514" y="395" width="101" height="33" rx="4" fill="#e8c062" opacity="0.94"/>
<text x="565" y="419" text-anchor="middle" fill="#131009" font-size="19" font-weight="700">+28</text>
<text x="30" y="463" fill="#e8e0d0" font-size="19" font-weight="600">ОАЭ</text>
<rect x="184" y="439" width="101" height="33" rx="4" fill="#7fb5c9" opacity="0.94"/>
<text x="235" y="463" text-anchor="middle" fill="#131009" font-size="19" font-weight="700">+22</text>
<rect x="294" y="439" width="101" height="33" rx="4" fill="#e8c062" opacity="0.94"/>
<text x="345" y="463" text-anchor="middle" fill="#131009" font-size="19" font-weight="700">+28</text>
<rect x="404" y="439" width="101" height="33" rx="4" fill="#d44545" opacity="0.94"/>
<text x="455" y="463" text-anchor="middle" fill="#131009" font-size="19" font-weight="700">+34</text>
<rect x="514" y="439" width="101" height="33" rx="4" fill="#d44545" opacity="0.94"/>
<text x="565" y="463" text-anchor="middle" fill="#131009" font-size="19" font-weight="700">+31</text>
<text x="30" y="507" fill="#e8e0d0" font-size="19" font-weight="600">Таиланд</text>
<rect x="184" y="483" width="101" height="33" rx="4" fill="#e8c062" opacity="0.94"/>
<text x="235" y="507" text-anchor="middle" fill="#131009" font-size="19" font-weight="700">+27</text>
<rect x="294" y="483" width="101" height="33" rx="4" fill="#e8c062" opacity="0.94"/>
<text x="345" y="507" text-anchor="middle" fill="#131009" font-size="19" font-weight="700">+29</text>
<rect x="404" y="483" width="101" height="33" rx="4" fill="#e8c062" opacity="0.94"/>
<text x="455" y="507" text-anchor="middle" fill="#131009" font-size="19" font-weight="700">+29</text>
<rect x="514" y="483" width="101" height="33" rx="4" fill="#e8c062" opacity="0.94"/>
<text x="565" y="507" text-anchor="middle" fill="#131009" font-size="19" font-weight="700">+28</text>
<text x="30" y="551" fill="#e8e0d0" font-size="19" font-weight="600">Вьетнам</text>
<rect x="184" y="527" width="101" height="33" rx="4" fill="#5cc97a" opacity="0.94"/>
<text x="235" y="551" text-anchor="middle" fill="#131009" font-size="19" font-weight="700">+26</text>
<rect x="294" y="527" width="101" height="33" rx="4" fill="#e8c062" opacity="0.94"/>
<text x="345" y="551" text-anchor="middle" fill="#131009" font-size="19" font-weight="700">+28</text>
<rect x="404" y="527" width="101" height="33" rx="4" fill="#e8c062" opacity="0.94"/>
<text x="455" y="551" text-anchor="middle" fill="#131009" font-size="19" font-weight="700">+29</text>
<rect x="514" y="527" width="101" height="33" rx="4" fill="#e8c062" opacity="0.94"/>
<text x="565" y="551" text-anchor="middle" fill="#131009" font-size="19" font-weight="700">+28</text>
<text x="30" y="595" fill="#e8e0d0" font-size="19" font-weight="600">Куба</text>
<rect x="184" y="571" width="101" height="33" rx="4" fill="#5cc97a" opacity="0.94"/>
<text x="235" y="595" text-anchor="middle" fill="#131009" font-size="19" font-weight="700">+25</text>
<rect x="294" y="571" width="101" height="33" rx="4" fill="#e8c062" opacity="0.94"/>
<text x="345" y="595" text-anchor="middle" fill="#131009" font-size="19" font-weight="700">+27</text>
<rect x="404" y="571" width="101" height="33" rx="4" fill="#e8c062" opacity="0.94"/>
<text x="455" y="595" text-anchor="middle" fill="#131009" font-size="19" font-weight="700">+30</text>
<rect x="514" y="571" width="101" height="33" rx="4" fill="#e8c062" opacity="0.94"/>
<text x="565" y="595" text-anchor="middle" fill="#131009" font-size="19" font-weight="700">+29</text>
<text x="30" y="639" fill="#e8e0d0" font-size="19" font-weight="600">Мальдивы</text>
<rect x="184" y="615" width="101" height="33" rx="4" fill="#e8c062" opacity="0.94"/>
<text x="235" y="639" text-anchor="middle" fill="#131009" font-size="19" font-weight="700">+28</text>
<rect x="294" y="615" width="101" height="33" rx="4" fill="#e8c062" opacity="0.94"/>
<text x="345" y="639" text-anchor="middle" fill="#131009" font-size="19" font-weight="700">+28</text>
<rect x="404" y="615" width="101" height="33" rx="4" fill="#e8c062" opacity="0.94"/>
<text x="455" y="639" text-anchor="middle" fill="#131009" font-size="19" font-weight="700">+28</text>
<rect x="514" y="615" width="101" height="33" rx="4" fill="#e8c062" opacity="0.94"/>
<text x="565" y="639" text-anchor="middle" fill="#131009" font-size="19" font-weight="700">+28</text>
<text x="320" y="690" text-anchor="middle" fill="#6b6455" font-size="15">Наши замеры для страниц сезонов, август 2026</text>
</svg>